<?xml version="1.0" encoding="UTF-8" standalone="no"?>
<!-- Created with Inkscape (http://www.inkscape.org/) -->

<svg
   xmlns:dc="http://purl.org/dc/elements/1.1/"
   xmlns:cc="http://creativecommons.org/ns#"
   xmlns:rdf="http://www.w3.org/1999/02/22-rdf-syntax-ns#"
   xmlns:svg="http://www.w3.org/2000/svg"
   xmlns="http://www.w3.org/2000/svg"
   xmlns:sodipodi="http://sodipodi.sourceforge.net/DTD/sodipodi-0.dtd"
   xmlns:inkscape="http://www.inkscape.org/namespaces/inkscape"
   id="svg3355"
   version="1.1"
   inkscape:version="0.92.2 (5c3e80d, 2017-08-06)"
   xml:space="preserve"
   width="252.4675"
   height="252.4675"
   viewBox="0 0 252.4675 252.4675"
   sodipodi:docname="logo_hbrs_notext.svg"
   inkscape:export-filename="D:\VirtualMachine\Modellbildung-und-Simulation\content\images\logo\favicon.png"
   inkscape:export-xdpi="96"
   inkscape:export-ydpi="96"><metadata
     id="metadata3361"><rdf:RDF><cc:Work
         rdf:about=""><dc:format>image/svg+xml</dc:format><dc:type
           rdf:resource="http://purl.org/dc/dcmitype/StillImage" /><dc:title></dc:title></cc:Work></rdf:RDF></metadata><defs
     id="defs3359" /><sodipodi:namedview
     pagecolor="#ffffff"
     bordercolor="#666666"
     borderopacity="1"
     objecttolerance="10"
     gridtolerance="10"
     guidetolerance="10"
     inkscape:pageopacity="0"
     inkscape:pageshadow="2"
     inkscape:window-width="1920"
     inkscape:window-height="1138"
     id="namedview3357"
     showgrid="false"
     inkscape:zoom="0.64044722"
     inkscape:cx="417.92977"
     inkscape:cy="-210.97073"
     inkscape:window-x="1912"
     inkscape:window-y="-8"
     inkscape:window-maximized="1"
     inkscape:current-layer="g3365"
     inkscape:snap-grids="false" /><g
     id="g3363"
     inkscape:groupmode="layer"
     inkscape:label="logo_hbrs"
     transform="matrix(1.25,0,0,-1.25,0.65812502,321.42358)"><g
       id="g3365"
       transform="translate(0,-0.44163312)"><path
         d="m 119.723,153.094 c 0,22.461 18.207,40.672 40.672,40.672 22.46,0 40.667,-18.211 40.667,-40.672 0,-22.461 -18.207,-40.67201 -40.667,-40.67201 -22.461,0 -40.672,18.21101 -40.672,40.67201"
         style="fill:#009ee0;fill-opacity:1;fill-rule:nonzero;stroke:none"
         id="path3417"
         inkscape:connector-curvature="0" /><g
         id="g3419"
         transform="matrix(1,0,0,-1,0,194)"><path
           d="m 119.723,40.906 c 0,-22.461 18.207,-40.672 40.672,-40.672 22.46,0 40.667,18.211 40.667,40.672 0,22.461 -18.207,40.672 -40.667,40.672 -22.461,0 -40.672,-18.211 -40.672,-40.672 z"
           style="fill:none;stroke:#009ee0;stroke-width:0.77100003;stroke-linecap:butt;stroke-linejoin:miter;stroke-miterlimit:3.86400008;stroke-dasharray:none;stroke-opacity:1"
           id="path3421"
           inkscape:connector-curvature="0" /></g><path
         style="fill:#009ee0;fill-opacity:1;fill-rule:nonzero;stroke:none;stroke-width:0.80000001"
         d="m 40.53125,193.33225 c -22.461,0 -40.671875,-18.20775 -40.671875,-40.66875 0,-22.465 18.210875,-40.67188 40.671875,-40.67188 22.461,0 40.671878,18.20688 40.671878,40.67188 0,22.461 -18.210878,40.66875 -40.671878,40.66875 z m 0.109375,-15.0625 c 14.082,0 25.5,-11.415 25.5,-25.5 0,-14.079 -11.418,-25.5 -25.5,-25.5 -14.082,0 -25.5,11.421 -25.5,25.5 0,14.085 11.418,25.5 25.5,25.5 z"
         id="path3423"
         inkscape:connector-curvature="0" /><g
         id="g3425"
         transform="matrix(1,0,0,-1,0,194)"><path
           d="m -0.141,41.336 c 0,-22.461 18.211,-40.668 40.672,-40.668 22.461,0 40.672,18.207 40.672,40.668 0,22.465 -18.211,40.672 -40.672,40.672 -22.461,0 -40.672,-18.207 -40.672,-40.672 z"
           style="fill:none;stroke:#009ee0;stroke-width:0.77100003;stroke-linecap:butt;stroke-linejoin:miter;stroke-miterlimit:3.86400008;stroke-dasharray:none;stroke-opacity:1"
           id="path3427"
           inkscape:connector-curvature="0" /></g></g></g></svg>