<?xml version="1.0" encoding="UTF-8" standalone="no"?>
<!-- Created with Inkscape (http://www.inkscape.org/) -->

<svg
   xmlns:dc="http://purl.org/dc/elements/1.1/"
   xmlns:cc="http://creativecommons.org/ns#"
   xmlns:rdf="http://www.w3.org/1999/02/22-rdf-syntax-ns#"
   xmlns:svg="http://www.w3.org/2000/svg"
   xmlns="http://www.w3.org/2000/svg"
   xmlns:sodipodi="http://sodipodi.sourceforge.net/DTD/sodipodi-0.dtd"
   xmlns:inkscape="http://www.inkscape.org/namespaces/inkscape"
   id="svg3355"
   version="1.1"
   inkscape:version="0.92.2 (5c3e80d, 2017-08-06)"
   xml:space="preserve"
   width="960"
   height="172.5"
   viewBox="0 0 960 172.5"
   sodipodi:docname="logo_hbrs.svg"><metadata
     id="metadata3361"><rdf:RDF><cc:Work
         rdf:about=""><dc:format>image/svg+xml</dc:format><dc:type
           rdf:resource="http://purl.org/dc/dcmitype/StillImage" /><dc:title></dc:title></cc:Work></rdf:RDF></metadata><defs
     id="defs3359" /><sodipodi:namedview
     pagecolor="#ffffff"
     bordercolor="#666666"
     borderopacity="1"
     objecttolerance="10"
     gridtolerance="10"
     guidetolerance="10"
     inkscape:pageopacity="0"
     inkscape:pageshadow="2"
     inkscape:window-width="1920"
     inkscape:window-height="1138"
     id="namedview3357"
     showgrid="false"
     inkscape:zoom="1.8114583"
     inkscape:cx="387.80909"
     inkscape:cy="86.25"
     inkscape:window-x="1912"
     inkscape:window-y="-8"
     inkscape:window-maximized="1"
     inkscape:current-layer="g3363" /><g
     id="g3363"
     inkscape:groupmode="layer"
     inkscape:label="logo_hbrs"
     transform="matrix(1.25,0,0,-1.25,0,172.5)"><g
       id="g3365"
       transform="translate(0,-0.44163312)"><path
         d="m 288.477,55.234 10.5,0 c 3.785,0 10.585,1.118 10.585,8.7 0,3.699 -2.792,6.453 -6.882,6.839 l 0,0.086 c 3.57,0.645 5.98,3.141 5.98,6.715 0,6.586 -5.808,7.703 -9.683,7.703 l -10.5,0 m 6.023,-4.734 2.324,0 c 2.758,0 5.813,-0.258 5.813,-3.746 0,-3.098 -3.145,-3.656 -5.684,-3.656 l -2.453,0 0,7.402 z m 0,-11.879 2.84,0 c 3.015,0 6.199,-0.602 6.199,-4.516 0,-3.488 -3.398,-4.175 -6.199,-4.175 l -2.84,0 0,8.691 z"
         style="fill:#000000;fill-opacity:1;fill-rule:evenodd;stroke:none"
         id="path3367"
         inkscape:connector-curvature="0" /><path
         d="m 319.062,66.859 c 0,3.313 1.809,6.586 5.551,6.586 3.789,0 5.594,-3.187 5.594,-6.586 0,-3.703 -1.164,-7.664 -5.594,-7.664 -4.39,0 -5.551,4.004 -5.551,7.664 m -6.027,-0.691 c 0,-6.367 4.262,-11.449 11.578,-11.449 7.36,0 11.617,5.082 11.617,11.449 0,7.316 -5.035,11.75 -11.617,11.75 -6.543,0 -11.578,-4.434 -11.578,-11.75 z"
         style="fill:#000000;fill-opacity:1;fill-rule:evenodd;stroke:none"
         id="path3369"
         inkscape:connector-curvature="0" /><path
         d="m 340.949,55.234 5.77,0 0,10.852 c 0,2.84 0.902,7.359 5.078,7.359 3.699,0 3.742,-3.664 3.742,-6.375 l 0,-11.832 5.77,0 0,13.985 c 0,4.996 -2.282,8.695 -7.532,8.695 -3.011,0 -5.468,-0.992 -7.273,-3.527 l -0.086,0 0,3.011 -5.469,0"
         style="fill:#000000;fill-opacity:1;fill-rule:nonzero;stroke:none"
         id="path3371"
         inkscape:connector-curvature="0" /><path
         d="m 367.445,55.234 5.766,0 0,10.852 c 0,2.84 0.906,7.359 5.082,7.359 3.699,0 3.742,-3.664 3.742,-6.375 l 0,-11.832 5.766,0 0,13.985 c 0,4.996 -2.278,8.695 -7.528,8.695 -3.015,0 -5.468,-0.992 -7.277,-3.527 l -0.082,0 0,3.011 -5.469,0"
         style="fill:#000000;fill-opacity:1;fill-rule:nonzero;stroke:none"
         id="path3373"
         inkscape:connector-curvature="0" /><path
         d="m 392.477,69.18 11.324,0 0,-4.73 -11.324,0 0,4.73 z"
         style="fill:#000000;fill-opacity:1;fill-rule:nonzero;stroke:none"
         id="path3375"
         inkscape:connector-curvature="0" /><path
         d="m 408.473,55.234 6.027,0 0,12.485 1.934,0 c 2.539,0 3.32,-0.86 4.175,-3.098 l 3.618,-9.387 6.714,0 -4.824,11.754 c -0.597,1.332 -1.547,2.965 -3.187,3.098 l 0,0.086 c 3.832,0.516 6.203,3.445 6.203,6.969 0,8.351 -7.707,8.14 -14.164,8.14 l -6.496,0 m 6.027,-4.738 1.977,0 c 3.015,0 6.371,-0.301 6.371,-3.914 0,-3.742 -3.395,-4.176 -6.371,-4.176 l -1.977,0 0,8.09 z"
         style="fill:#000000;fill-opacity:1;fill-rule:evenodd;stroke:none"
         id="path3377"
         inkscape:connector-curvature="0" /><path
         d="m 434.969,55.234 5.765,0 0,10.852 c 0,2.84 0.911,7.359 5.078,7.359 3.708,0 3.75,-3.664 3.75,-6.375 l 0,-11.832 5.766,0 0,13.985 c 0,4.996 -2.277,8.695 -7.531,8.695 -3.012,0 -5.508,-1.375 -6.969,-3.527 l -0.094,0 0,13.125 -5.765,0"
         style="fill:#000000;fill-opacity:1;fill-rule:nonzero;stroke:none"
         id="path3379"
         inkscape:connector-curvature="0" /><path
         d="m 479.242,61.176 c -2.152,-1.203 -4.562,-2.238 -7.363,-2.238 -3.57,0 -6.067,2.023 -6.32,5.593 l 15.316,0 c 0,7.75 -2.32,13.387 -10.543,13.387 -6.883,0 -10.289,-5.293 -10.289,-11.707 0,-7.273 4.262,-11.492 11.586,-11.492 3.09,0 5.504,0.605 7.613,1.765 m -13.683,12.008 c 0.253,2.973 1.89,5.207 5.117,5.207 3.23,0 4.523,-2.406 4.691,-5.207 l -9.808,0 z"
         style="fill:#000000;fill-opacity:1;fill-rule:evenodd;stroke:none"
         id="path3381"
         inkscape:connector-curvature="0" /><path
         d="m 485.727,81.445 5.765,0 0,5.512 -5.765,0 m 0,-31.723 5.765,0 0,22.168 -5.765,0 0,-22.168 z"
         style="fill:#000000;fill-opacity:1;fill-rule:evenodd;stroke:none"
         id="path3383"
         inkscape:connector-curvature="0" /><path
         d="m 497.762,55.234 5.765,0 0,10.852 c 0,2.84 0.899,7.359 5.078,7.359 3.7,0 3.743,-3.664 3.743,-6.375 l 0,-11.832 5.773,0 0,13.985 c 0,4.996 -2.285,8.695 -7.531,8.695 -3.02,0 -5.473,-0.992 -7.281,-3.527 l -0.082,0 0,3.011 -5.465,0"
         style="fill:#000000;fill-opacity:1;fill-rule:nonzero;stroke:none"
         id="path3385"
         inkscape:connector-curvature="0" /><path
         d="m 522.797,69.18 11.312,0 0,-4.73 -11.312,0 0,4.73 z"
         style="fill:#000000;fill-opacity:1;fill-rule:nonzero;stroke:none"
         id="path3387"
         inkscape:connector-curvature="0" /><path
         d="m 556.004,84.719 c -2.192,0.734 -4.606,1.078 -7.184,1.078 -5.297,0 -10.508,-2.453 -10.508,-9.168 0,-9.945 13.172,-7.578 13.172,-13.301 0,-2.711 -3.05,-3.871 -5.336,-3.871 -2.363,0 -4.734,0.731 -6.8,1.848 l -0.559,-5.422 c 2.969,-0.731 4.434,-1.164 7.703,-1.164 6.067,0 11.281,2.496 11.281,9.082 0,10.07 -13.171,7.875 -13.171,13.086 0,3.269 2.664,4.172 4.73,4.172 2.109,0 4.219,-0.469 6.109,-1.289"
         style="fill:#000000;fill-opacity:1;fill-rule:nonzero;stroke:none"
         id="path3389"
         inkscape:connector-curvature="0" /><path
         d="m 563.043,81.445 5.773,0 0,5.512 -5.773,0 m 0,-31.723 5.773,0 0,22.168 -5.773,0 0,-22.168 z"
         style="fill:#000000;fill-opacity:1;fill-rule:evenodd;stroke:none"
         id="path3391"
         inkscape:connector-curvature="0" /><path
         d="m 592.859,61.176 c -2.152,-1.203 -4.566,-2.238 -7.363,-2.238 -3.574,0 -6.07,2.023 -6.324,5.593 l 15.316,0 c 0,7.75 -2.32,13.387 -10.543,13.387 -6.883,0 -10.289,-5.293 -10.289,-11.707 0,-7.273 4.266,-11.492 11.586,-11.492 3.094,0 5.504,0.605 7.613,1.765 m -13.683,12.008 c 0.254,2.973 1.89,5.207 5.121,5.207 3.227,0 4.519,-2.406 4.687,-5.207 l -9.808,0 z"
         style="fill:#000000;fill-opacity:1;fill-rule:evenodd;stroke:none"
         id="path3393"
         inkscape:connector-curvature="0" /><path
         d="m 614.055,77.402 0,-3.011 -0.082,0 c -1.598,2.539 -3.875,3.531 -6.801,3.531 -6.633,0 -9.379,-6.156 -9.379,-11.492 0,-5.938 2.496,-11.192 9.035,-11.192 3.227,0 5.809,1.633 6.887,3.528 l 0.082,0 c 0,-3.828 -0.305,-8.606 -6.668,-8.606 -1.805,0 -4.688,0.992 -6.453,1.938 l -0.481,-4.91 c 2.758,-1.161 5.379,-1.504 7.668,-1.504 9.297,0 11.699,5.683 11.699,11.703 l 0,20.015 M 608.719,59.711 c -3.313,0 -4.91,3.703 -4.91,6.719 0,3.398 1.253,7.015 5.171,7.015 3.356,0 4.817,-3.097 4.817,-6.89 0,-3.7 -1.465,-6.844 -5.078,-6.844 z"
         style="fill:#000000;fill-opacity:1;fill-rule:evenodd;stroke:none"
         id="path3395"
         inkscape:connector-curvature="0" /><path
         d="m 288.477,100.426 6.023,0 0,13.172 12.055,0 0,-13.172 6.023,0 0,30.043 -6.023,0 0,-12.137 -12.055,0 0,12.137 -6.023,0"
         style="fill:#000000;fill-opacity:1;fill-rule:nonzero;stroke:none"
         id="path3397"
         inkscape:connector-curvature="0" /><path
         d="m 323.836,112.047 c 0,3.316 1.809,6.586 5.555,6.586 3.785,0 5.597,-3.184 5.597,-6.586 0,-3.703 -1.164,-7.66 -5.597,-7.66 -4.391,0 -5.555,4.004 -5.555,7.66 m -6.024,-0.688 c 0,-6.367 4.262,-11.449 11.575,-11.449 7.359,0 11.621,5.082 11.621,11.449 0,7.317 -5.035,11.75 -11.621,11.75 -6.539,0 -11.575,-4.433 -11.575,-11.75 z"
         style="fill:#000000;fill-opacity:1;fill-rule:evenodd;stroke:none"
         id="path3399"
         inkscape:connector-curvature="0" /><path
         d="m 360.621,122.379 c -1.594,0.469 -3.269,0.73 -5.594,0.73 -6.929,0 -10.718,-5.082 -10.718,-11.492 0,-6.758 3.656,-11.707 10.933,-11.707 2.367,0 4.09,0.219 5.766,0.731 l -0.258,4.781 c -0.992,-0.43 -2.797,-1.035 -4.434,-1.035 -4.046,0 -5.984,3.144 -5.984,7.234 0,4.172 2.281,7.012 5.856,7.012 1.765,0 2.882,-0.344 3.914,-0.817"
         style="fill:#000000;fill-opacity:1;fill-rule:nonzero;stroke:none"
         id="path3401"
         inkscape:connector-curvature="0" /><path
         d="m 365.039,100.426 5.766,0 0,10.847 c 0,2.844 0.902,7.36 5.078,7.36 3.703,0 3.742,-3.66 3.742,-6.371 l 0,-11.836 5.773,0 0,13.988 c 0,4.992 -2.285,8.695 -7.531,8.695 -3.015,0 -5.512,-1.379 -6.972,-3.531 l -0.09,0 0,13.125 -5.766,0"
         style="fill:#000000;fill-opacity:1;fill-rule:nonzero;stroke:none"
         id="path3403"
         inkscape:connector-curvature="0" /><path
         d="m 405.094,122.289 c -1.805,0.387 -3.571,0.82 -6.289,0.82 -4.512,0 -8.692,-2.109 -8.692,-6.886 0,-8.004 10.032,-5.035 10.032,-9.383 0,-2.152 -2.329,-2.711 -3.793,-2.711 -1.977,0 -3.875,0.559 -5.684,1.465 l -0.344,-4.735 c 2.11,-0.558 4.356,-0.949 6.547,-0.949 4.691,0 9.301,2.067 9.301,7.235 0,8 -10.031,5.765 -10.031,9.296 0,1.891 1.851,2.45 3.398,2.45 2.109,0 3.402,-0.344 5.168,-0.946"
         style="fill:#000000;fill-opacity:1;fill-rule:nonzero;stroke:none"
         id="path3405"
         inkscape:connector-curvature="0" /><path
         d="m 425.73,122.379 c -1.585,0.469 -3.269,0.73 -5.589,0.73 -6.934,0 -10.715,-5.082 -10.715,-11.492 0,-6.758 3.656,-11.707 10.926,-11.707 2.371,0 4.093,0.219 5.765,0.731 l -0.254,4.781 c -0.988,-0.43 -2.797,-1.035 -4.437,-1.035 -4.043,0 -5.977,3.144 -5.977,7.234 0,4.172 2.278,7.012 5.852,7.012 1.765,0 2.883,-0.344 3.918,-0.817"
         style="fill:#000000;fill-opacity:1;fill-rule:nonzero;stroke:none"
         id="path3407"
         inkscape:connector-curvature="0" /><path
         d="m 430.152,100.426 5.766,0 0,10.847 c 0,2.844 0.91,7.36 5.078,7.36 3.707,0 3.75,-3.66 3.75,-6.371 l 0,-11.836 5.766,0 0,13.988 c 0,4.992 -2.285,8.695 -7.532,8.695 -3.019,0 -5.515,-1.379 -6.976,-3.531 l -0.086,0 0,13.125 -5.766,0"
         style="fill:#000000;fill-opacity:1;fill-rule:nonzero;stroke:none"
         id="path3409"
         inkscape:connector-curvature="0" /><path
         d="m 477.008,122.594 -5.766,0 0,-10.848 c 0,-2.836 -0.91,-7.359 -5.078,-7.359 -3.707,0 -3.75,3.66 -3.75,6.371 l 0,11.836 -5.766,0 0,-13.989 c 0,-4.992 2.278,-8.695 7.532,-8.695 3.011,0 5.508,1.379 7.273,3.531 l 0.09,0 0,-3.015 5.465,0"
         style="fill:#000000;fill-opacity:1;fill-rule:nonzero;stroke:none"
         id="path3411"
         inkscape:connector-curvature="0" /><path
         d="m 483.27,132.711 5.773,0 0,-32.281 -5.773,0 0,32.281 z"
         style="fill:#000000;fill-opacity:1;fill-rule:nonzero;stroke:none"
         id="path3413"
         inkscape:connector-curvature="0" /><path
         d="m 513.086,106.363 c -2.152,-1.199 -4.566,-2.234 -7.363,-2.234 -3.575,0 -6.071,2.023 -6.325,5.594 l 15.317,0 c 0,7.746 -2.32,13.386 -10.539,13.386 -6.887,0 -10.289,-5.297 -10.289,-11.707 0,-7.273 4.261,-11.492 11.582,-11.492 3.093,0 5.508,0.606 7.617,1.766 m -13.688,12.008 c 0.254,2.968 1.895,5.207 5.122,5.207 3.226,0 4.523,-2.411 4.691,-5.207 l -9.813,0 z"
         style="fill:#000000;fill-opacity:1;fill-rule:evenodd;stroke:none"
         id="path3415"
         inkscape:connector-curvature="0" /><path
         d="m 119.723,97.094 c 0,22.461 18.207,40.672 40.672,40.672 22.46,0 40.667,-18.211 40.667,-40.672 0,-22.461 -18.207,-40.672 -40.667,-40.672 -22.461,0 -40.672,18.211 -40.672,40.672"
         style="fill:#009ee0;fill-opacity:1;fill-rule:nonzero;stroke:none"
         id="path3417"
         inkscape:connector-curvature="0" /><g
         id="g3419"
         transform="matrix(1,0,0,-1,0,138)"><path
           d="m 119.723,40.906 c 0,-22.461 18.207,-40.672 40.672,-40.672 22.46,0 40.667,18.211 40.667,40.672 0,22.461 -18.207,40.672 -40.667,40.672 -22.461,0 -40.672,-18.211 -40.672,-40.672 z"
           style="fill:none;stroke:#009ee0;stroke-width:0.77100003;stroke-linecap:butt;stroke-linejoin:miter;stroke-miterlimit:3.86400008;stroke-dasharray:none;stroke-opacity:1"
           id="path3421"
           inkscape:connector-curvature="0" /></g><path
         style="fill:#009ee0;fill-opacity:1;fill-rule:nonzero;stroke:none"
         d="M 50.664062 1.3867188 C 22.587812 1.3867187 -0.17578125 24.146406 -0.17578125 52.222656 C -0.17578125 80.303906 22.587813 103.0625 50.664062 103.0625 C 78.740313 103.0625 101.50391 80.303906 101.50391 52.222656 C 101.50391 24.146406 78.740313 1.3867188 50.664062 1.3867188 z M 50.800781 20.214844 C 68.403281 20.214844 82.675781 34.483594 82.675781 52.089844 C 82.675781 69.688594 68.403281 83.964844 50.800781 83.964844 C 33.198281 83.964844 18.925781 69.688594 18.925781 52.089844 C 18.925781 34.483594 33.198281 20.214844 50.800781 20.214844 z "
         transform="matrix(0.8,0,0,-0.8,0,138.44163)"
         id="path3423" /><g
         id="g3425"
         transform="matrix(1,0,0,-1,0,138)"><path
           d="m -0.141,41.336 c 0,-22.461 18.211,-40.668 40.672,-40.668 22.461,0 40.672,18.207 40.672,40.668 0,22.465 -18.211,40.672 -40.672,40.672 -22.461,0 -40.672,-18.207 -40.672,-40.672 z"
           style="fill:none;stroke:#009ee0;stroke-width:0.77100003;stroke-linecap:butt;stroke-linejoin:miter;stroke-miterlimit:3.86400008;stroke-dasharray:none;stroke-opacity:1"
           id="path3427"
           inkscape:connector-curvature="0" /></g><path
         d="m 306.438,34.266 -2.61,0 0,-17.192 c 0,-4.316 -2.39,-7.422 -6.973,-7.422 -4.582,0 -6.968,3.106 -6.968,7.422 l 0,17.192 -2.61,0 0,-17.192 c 0,-7.801 5.715,-9.699 9.578,-9.699 3.86,0 9.583,1.898 9.583,9.699"
         style="fill:#000000;fill-opacity:1;fill-rule:nonzero;stroke:none"
         id="path3431"
         inkscape:connector-curvature="0" /><path
         d="m 312.648,7.832 2.387,0 0,10.68 c 0,3.222 1.363,7.043 5.715,7.043 3.297,0 4.582,-2.344 4.582,-5.981 l 0,-11.742 2.391,0 0,12.348 c 0,4.242 -1.821,7.425 -6.594,7.425 -4.008,0 -5.449,-2.16 -6.25,-3.906 l -0.07,0 0,3.449 -2.313,0 c 0.152,-1.554 0.152,-3.07 0.152,-4.543"
         style="fill:#000000;fill-opacity:1;fill-rule:nonzero;stroke:none"
         id="path3433"
         inkscape:connector-curvature="0" /><path
         d="m 336.27,35.477 -2.387,0 0,-3.176 2.387,0 m -2.387,-24.469 2.387,0 0,19.316 -2.387,0 0,-19.316 z"
         style="fill:#000000;fill-opacity:1;fill-rule:evenodd;stroke:none"
         id="path3435"
         inkscape:connector-curvature="0" /><path
         d="m 355.945,27.148 -2.5,0 -5.601,-16.703 -0.074,0 -5.344,16.703 -2.614,0 6.555,-19.316 2.801,0"
         style="fill:#000000;fill-opacity:1;fill-rule:nonzero;stroke:none"
         id="path3437"
         inkscape:connector-curvature="0" /><path
         d="m 360.629,18.855 c 0,3.184 2.16,6.7 5.683,6.7 3.559,0 4.922,-3.328 4.922,-6.7 m 1.176,-7.996 c -1.133,-0.718 -3.672,-1.437 -5.414,-1.437 -4.168,0 -6.367,3.297 -6.367,7.387 l 13.219,0 0,1.211 c 0,5.191 -2.231,9.585 -7.688,9.585 -4.883,0 -8.14,-4.207 -8.14,-10.117 0,-5.793 2.382,-10.109 8.785,-10.109 1.781,0 3.941,0.375 5.605,1.062 l 0,2.418 z"
         style="fill:#000000;fill-opacity:1;fill-rule:evenodd;stroke:none"
         id="path3439"
         inkscape:connector-curvature="0" /><path
         d="m 378.578,7.832 2.391,0 0,9.547 c 0,3.48 1.019,7.726 4.808,7.726 0.606,0 1.254,-0.082 1.739,-0.234 l 0,2.504 c -0.411,0.113 -1.09,0.23 -1.664,0.23 -2.461,0 -4.09,-2.011 -4.961,-4.167 l -0.075,0 0,3.71 -2.382,0 c 0.144,-1.406 0.144,-2.199 0.144,-4.316"
         style="fill:#000000;fill-opacity:1;fill-rule:nonzero;stroke:none"
         id="path3441"
         inkscape:connector-curvature="0" /><path
         d="m 389.672,8.285 c 1.695,-0.676 3.555,-0.906 5.41,-0.906 2.918,0 6.742,1.398 6.742,5.492 0,6.324 -9.508,5.871 -9.508,9.469 0,2.457 1.707,3.219 4.172,3.219 1.321,0 3.024,-0.34 4.278,-0.907 l 0.226,2.078 c -1.707,0.645 -3.746,0.872 -4.773,0.872 -3.176,0 -6.289,-1.438 -6.289,-5.262 0,-5.613 9.281,-4.891 9.281,-9.469 0,-2.199 -2.008,-3.449 -4.277,-3.449 -1.86,0 -3.598,0.488 -5.036,1.211"
         style="fill:#000000;fill-opacity:1;fill-rule:nonzero;stroke:none"
         id="path3443"
         inkscape:connector-curvature="0" /><path
         d="m 408.668,35.477 -2.387,0 0,-3.176 2.387,0 m -2.387,-24.469 2.387,0 0,19.316 -2.387,0 0,-19.316 z"
         style="fill:#000000;fill-opacity:1;fill-rule:evenodd;stroke:none"
         id="path3445"
         inkscape:connector-curvature="0" /><path
         d="m 423.191,27.148 -4.386,0 0,5.493 -2.387,-0.836 0,-4.657 -3.785,0 0,-2.043 3.785,0 0,-11.289 c 0,-3.523 0.148,-6.441 4.394,-6.441 1.168,0 2.348,0.305 2.911,0.535 l -0.145,1.969 c -0.68,-0.266 -1.293,-0.457 -2.203,-0.457 -1.922,0 -2.57,1.437 -2.57,3.183 l 0,12.5 4.386,0"
         style="fill:#000000;fill-opacity:1;fill-rule:nonzero;stroke:none"
         id="path3447"
         inkscape:connector-curvature="0" /><path
         d="m 441.141,27.148 -2.508,0 -5.563,-16.097 -0.078,0 0.043,-0.039 -5.422,16.136 -2.613,0 6.859,-19.546 -0.496,-1.704 c -0.758,-2.5 -1.437,-4.203 -3.48,-4.203 -0.875,0 -1.328,0.153 -1.781,0.305 l -0.227,-2.047 c 0.789,-0.187 1.703,-0.301 2.57,-0.301 2.692,0 4.059,2.649 4.969,5.301"
         style="fill:#000000;fill-opacity:1;fill-rule:evenodd;stroke:none"
         id="path3449"
         inkscape:connector-curvature="0" /><path
         d="m 456.488,17.488 c 0,4.469 2.227,8.067 6.399,8.067 4.168,0 6.402,-3.598 6.402,-8.067 0,-4.465 -2.234,-8.066 -6.402,-8.066 -4.172,0 -6.399,3.601 -6.399,8.066 m -2.613,0 c 0,-5.261 2.766,-10.109 9.012,-10.109 6.246,0 9.019,4.848 9.019,10.109 0,5.266 -2.773,10.117 -9.019,10.117 -6.246,0 -9.012,-4.851 -9.012,-10.117 z"
         style="fill:#000000;fill-opacity:1;fill-rule:evenodd;stroke:none"
         id="path3451"
         inkscape:connector-curvature="0" /><path
         d="m 478.211,7.832 2.387,0 0,17.273 4.355,0 0,2.043 -4.355,0 0,1.664 c 0,2.313 -0.336,5.833 2.918,5.833 0.679,0 1.402,-0.149 1.89,-0.411 l 0.149,2.078 c -0.446,0.266 -1.469,0.379 -2.227,0.379 -4.969,0 -5.117,-4.093 -5.117,-8.14 l 0,-1.403 -3.902,0 0,-2.043 3.902,0"
         style="fill:#000000;fill-opacity:1;fill-rule:nonzero;stroke:none"
         id="path3453"
         inkscape:connector-curvature="0" /><path
         d="m 515.414,17.188 -11.473,0 5.758,14.582 m -12.121,-23.938 2.539,0 2.84,7.086 13.332,0 2.84,-7.086 2.723,0 -10.489,26.434 -2.949,0 -10.836,-26.434 z"
         style="fill:#000000;fill-opacity:1;fill-rule:evenodd;stroke:none"
         id="path3455"
         inkscape:connector-curvature="0" /><path
         d="m 539.129,17.488 c 0,-3.75 -1.18,-8.066 -5.727,-8.066 -4.234,0 -5.714,4.547 -5.714,8.066 0,3.528 1.48,8.067 5.714,8.067 4.547,0 5.727,-4.317 5.727,-8.067 m -13.828,-17.609 2.387,0 0,11.25 0.074,0 c 1.176,-2.5 2.992,-3.75 6.019,-3.75 5.305,0 7.953,4.391 7.953,10.109 0,5.871 -2.269,10.114 -7.953,10.114 -4.086,0 -5.566,-2.918 -6.172,-3.977 l -0.074,0 0.153,3.523 -2.391,0 0,-27.269 0.004,0 z"
         style="fill:#000000;fill-opacity:1;fill-rule:evenodd;stroke:none"
         id="path3457"
         inkscape:connector-curvature="0" /><path
         d="m 560.359,17.488 c 0,-3.75 -1.175,-8.066 -5.726,-8.066 -4.235,0 -5.715,4.547 -5.715,8.066 0,3.528 1.48,8.067 5.715,8.067 4.551,0 5.726,-4.317 5.726,-8.067 m -13.828,-17.609 2.387,0 0,11.25 0.078,0 c 1.176,-2.5 2.992,-3.75 6.02,-3.75 5.3,0 7.949,4.391 7.949,10.109 0,5.871 -2.27,10.114 -7.949,10.114 -4.086,0 -5.567,-2.918 -6.172,-3.977 l -0.078,0 0.152,3.523 -2.387,0 0,-27.269 z"
         style="fill:#000000;fill-opacity:1;fill-rule:evenodd;stroke:none"
         id="path3459"
         inkscape:connector-curvature="0" /><path
         d="m 567.992,36.238 2.387,0 0,-28.406 -2.387,0 0,28.406 z"
         style="fill:#000000;fill-opacity:1;fill-rule:nonzero;stroke:none"
         id="path3461"
         inkscape:connector-curvature="0" /><path
         d="m 578.961,35.477 -2.387,0 0,-3.176 2.387,0 m -2.387,-24.469 2.387,0 0,19.316 -2.387,0 0,-19.316 z"
         style="fill:#000000;fill-opacity:1;fill-rule:evenodd;stroke:none"
         id="path3463"
         inkscape:connector-curvature="0" /><path
         d="m 586.336,18.855 c 0,3.184 2.16,6.7 5.68,6.7 3.554,0 4.925,-3.328 4.925,-6.7 m 1.168,-7.996 c -1.132,-0.718 -3.671,-1.437 -5.414,-1.437 -4.168,0 -6.359,3.297 -6.359,7.387 l 13.211,0 0,1.211 c 0,5.191 -2.227,9.585 -7.684,9.585 -4.883,0 -8.144,-4.207 -8.144,-10.117 0,-5.793 2.39,-10.109 8.785,-10.109 1.781,0 3.941,0.375 5.609,1.062 l 0,2.418 -0.004,0 z"
         style="fill:#000000;fill-opacity:1;fill-rule:evenodd;stroke:none"
         id="path3465"
         inkscape:connector-curvature="0" /><path
         d="m 605.762,17.488 c 0,3.75 1.176,8.067 5.722,8.067 4.239,0 5.719,-4.539 5.719,-8.067 0,-3.515 -1.48,-8.066 -5.719,-8.066 -4.546,0 -5.722,4.316 -5.722,8.066 m 13.824,18.75 -2.387,0 0,-12.347 -0.074,0 c -0.336,0.945 -2.234,3.714 -6.02,3.714 -5.679,0 -7.953,-4.246 -7.953,-10.117 0,-5.718 2.649,-10.109 7.953,-10.109 2.766,0 4.735,1.062 6.02,3.519 l 0.074,0 0,-3.066 2.387,0 0,28.406 z"
         style="fill:#000000;fill-opacity:1;fill-rule:evenodd;stroke:none"
         id="path3467"
         inkscape:connector-curvature="0" /><path
         d="m 635.508,8.516 c 1.398,-0.61 3.406,-1.141 5.976,-1.141 4.094,0 8.676,2.125 8.676,7.465 0,7.726 -12.113,7.765 -12.113,13.066 0,3.41 2.984,4.539 5.719,4.539 1.781,0 3.629,-0.34 4.804,-0.976 l 0.422,2.383 c -1.824,0.683 -3.906,0.875 -5.195,0.875 -4.656,0 -8.371,-2.653 -8.371,-6.899 0,-6.926 12.121,-7.574 12.121,-12.766 0,-3.746 -2.684,-5.414 -5.945,-5.414 -2.461,0 -4.278,0.571 -5.832,1.555"
         style="fill:#000000;fill-opacity:1;fill-rule:nonzero;stroke:none"
         id="path3469"
         inkscape:connector-curvature="0" /><path
         d="m 668.113,26.844 c -0.679,0.23 -2.351,0.758 -4.656,0.758 -5.723,0 -9.547,-4.164 -9.547,-10.114 0,-5.375 3.035,-10.109 9.238,-10.109 1.825,0 3.336,0.113 4.965,0.68 l -0.226,2.234 c -1.438,-0.527 -2.84,-0.867 -4.36,-0.867 -4.355,0 -7.004,3.672 -7.004,8.062 0,4.7 2.614,8.071 7.27,8.071 1.289,0 2.844,-0.418 4.129,-0.989"
         style="fill:#000000;fill-opacity:1;fill-rule:nonzero;stroke:none"
         id="path3471"
         inkscape:connector-curvature="0" /><path
         d="m 674.73,35.477 -2.386,0 0,-3.176 2.386,0 m -2.386,-24.469 2.386,0 0,19.316 -2.386,0 0,-19.316 z"
         style="fill:#000000;fill-opacity:1;fill-rule:evenodd;stroke:none"
         id="path3473"
         inkscape:connector-curvature="0" /><path
         d="m 682.102,18.855 c 0,3.184 2.164,6.7 5.683,6.7 3.555,0 4.918,-3.328 4.918,-6.7 m 1.176,-7.996 c -1.133,-0.718 -3.672,-1.437 -5.414,-1.437 -4.168,0 -6.363,3.297 -6.363,7.387 l 13.214,0 0,1.211 c 0,5.191 -2.234,9.585 -7.683,9.585 -4.883,0 -8.145,-4.207 -8.145,-10.117 0,-5.793 2.387,-10.109 8.785,-10.109 1.782,0 3.942,0.375 5.606,1.062 l 0,2.418 z"
         style="fill:#000000;fill-opacity:1;fill-rule:evenodd;stroke:none"
         id="path3475"
         inkscape:connector-curvature="0" /><path
         d="m 700.051,7.832 2.387,0 0,10.68 c 0,3.222 1.359,7.043 5.714,7.043 3.305,0 4.59,-2.344 4.59,-5.981 l 0,-11.742 2.387,0 0,12.348 c 0,4.242 -1.824,7.425 -6.598,7.425 -4.008,0 -5.449,-2.16 -6.246,-3.906 l -0.074,0 0,3.449 -2.313,0 c 0.153,-1.554 0.153,-3.07 0.153,-4.543"
         style="fill:#000000;fill-opacity:1;fill-rule:nonzero;stroke:none"
         id="path3477"
         inkscape:connector-curvature="0" /><path
         d="m 734.051,26.844 c -0.688,0.23 -2.352,0.758 -4.656,0.758 -5.727,0 -9.551,-4.164 -9.551,-10.114 0,-5.375 3.035,-10.109 9.238,-10.109 1.824,0 3.34,0.113 4.969,0.68 l -0.227,2.234 c -1.437,-0.527 -2.84,-0.867 -4.363,-0.867 -4.352,0 -7,3.672 -7,8.062 0,4.7 2.613,8.071 7.269,8.071 1.286,0 2.84,-0.418 4.129,-0.989"
         style="fill:#000000;fill-opacity:1;fill-rule:nonzero;stroke:none"
         id="path3479"
         inkscape:connector-curvature="0" /><path
         d="m 739.449,18.855 c 0,3.184 2.16,6.7 5.684,6.7 3.562,0 4.922,-3.328 4.922,-6.7 m 1.179,-7.996 c -1.144,-0.718 -3.683,-1.437 -5.422,-1.437 -4.16,0 -6.363,3.297 -6.363,7.387 l 13.223,0 0,1.211 c 0,5.191 -2.234,9.585 -7.692,9.585 -4.882,0 -8.144,-4.207 -8.144,-10.117 0,-5.793 2.394,-10.109 8.793,-10.109 1.773,0 3.933,0.375 5.605,1.062 l 0,2.418 z"
         style="fill:#000000;fill-opacity:1;fill-rule:evenodd;stroke:none"
         id="path3481"
         inkscape:connector-curvature="0" /><path
         d="m 755.695,8.285 c 1.707,-0.676 3.567,-0.906 5.414,-0.906 2.918,0 6.75,1.398 6.75,5.492 0,6.324 -9.507,5.871 -9.507,9.469 0,2.457 1.699,3.219 4.164,3.219 1.328,0 3.035,-0.34 4.277,-0.907 l 0.227,2.078 c -1.7,0.645 -3.75,0.872 -4.774,0.872 -3.176,0 -6.277,-1.438 -6.277,-5.262 0,-5.613 9.269,-4.891 9.269,-9.469 0,-2.199 -2,-3.449 -4.277,-3.449 -1.852,0 -3.598,0.488 -5.035,1.211"
         style="fill:#000000;fill-opacity:1;fill-rule:nonzero;stroke:none"
         id="path3483"
         inkscape:connector-curvature="0" /></g></g></svg>