<?xml version="1.0" encoding="UTF-8"?>
<svg viewBox="0 0 400 400" xmlns="http://www.w3.org/2000/svg">
 <defs>
  <filter id="a">
   <feGaussianBlur stdDeviation="5.092479"/>
  </filter>
 </defs>
 <g stroke-linecap="round" stroke-linejoin="round">
  <path d="m217.5 49.378c-4.181 0.2175-7.971 2.5466-10.078 6.1933l-167.6 291.54c-2.2215 3.865-2.2285 8.631-0.018398 12.503 2.2101 3.871 6.3014 6.26 10.732 6.266l334.24 0.528c4.433 0.014008 8.536-2.359 10.761-6.224 2.226-3.864 2.237-8.632 0.027985-12.507l-166.67-292.06c-2.332-4.0701-6.732-6.4774-11.388-6.2311zm0.599 37.462l145.24 254.53-291.3-0.453 146.06-254.08z" filter="url(#a)" opacity="0" stroke-width="2"/>
  <g fill="#f00">
   <path d="m202.38 33.494c-1 0-7.97 2.5466-10.077 6.1933l-167.6 291.54c-2.2215 3.865-2.2285 8.631-0.018372 12.503s6.3014 6.26 10.732 6.266l334.23 0.529c4.433 0.013 9.536-2.36 10.762-6.224s2.236-8.633 0.026978-12.507l-166.67-292.07c-2.332-4.07-6.732-6.4773-11.388-6.231 0 0 1 0 0 0zm0.599 37.462l145.24 254.53-291.3-0.453 146.06-254.07z" stroke="#fff" stroke-width="7"/>
   <path d="m369.68 341.04l-334.25-0.5395 167.59-291.54 166.66 292.08z" stroke-width="0"/>
  </g>
  <path d="m202.45 110.76c-2.583 0.137-4.925 1.599-6.227 3.89l-103.58 183.1c-1.3728 2.427-1.3772 5.42-0.011398 7.852 1.3658 2.431 3.8942 3.932 6.6326 3.935l206.55 0.332c2.739 0.009003 5.275-1.481 6.651-3.909 1.375-2.427 1.382-5.421 0.016022-7.855l-103-183.43c-1.441-2.556-4.16-4.068-7.038-3.913z" fill="#fff" stroke-width="3"/>
 </g>
 <path d="m204.55 246.72h-3.9725c-0.41096-8.261-1.7808-18.152-4.1095-29.675l-4.726-23.479c-2.831-14.076-4.2465-24.158-4.2465-30.245-1.5e-5 -12.283 4.9999-18.424 15-18.424 4.3834 1.53e-4 8.0021 1.6986 10.856 5.0952 2.8538 3.397 4.2807 7.7313 4.2808 13.003-3.1e-5 5.5981-1.5068 15.788-4.5205 30.571l-4.7944 23.479c-1.6895 8.2611-2.9452 18.153-3.7671 29.675zm-1.8493 15.408c4.6574 6.1e-5 8.2646 1.8615 10.822 5.5844 2.557 3.723 3.8355 7.704 3.8355 11.943-3.1e-5 5.598-1.5525 9.9051-4.6575 12.922-3.105 3.0164-6.4382 4.5245-9.9998 4.5245-4.7032 0-8.3218-1.8478-10.856-5.5436-2.5342-3.6957-3.8013-7.6632-3.8013-11.902-3.1e-5 -4.9457 1.4041-9.1034 4.2122-12.473s6.2898-5.0544 10.445-5.0545z" stroke-width="2"/>
</svg>
